<?xml version="1.0" encoding="iso-8859-1"?>
<!-- Generator: Adobe Illustrator 19.0.0, SVG Export Plug-In . SVG Version: 6.00 Build 0)  -->
<svg version="1.1" id="Capa_1" xmlns="http://www.w3.org/2000/svg" xmlns:xlink="http://www.w3.org/1999/xlink" x="0px" y="0px" fill="#fff" 
	 viewBox="0 0 480 480" style="enable-background:new 0 0 480 480;" xml:space="preserve">
<g>
	<g>
		<path d="M248,88h-16c-30.913,0.035-55.965,25.087-56,56v56h128v-56C303.965,113.087,278.913,88.035,248,88z M288,184h-96v-40
			c0.026-22.08,17.92-39.974,40-40h16c22.08,0.026,39.974,17.92,40,40V184z"/>
	</g>
</g>
<g>
	<g>
		<path d="M240,0c-22.091,0-40,17.909-40,40c0.026,22.08,17.92,39.974,40,40c22.091,0,40-17.909,40-40S262.091,0,240,0z M240,64
			c-13.255,0-24-10.745-24-24s10.745-24,24-24s24,10.745,24,24S253.255,64,240,64z"/>
	</g>
</g>
<g>
	<g>
		<path d="M72,312c-17.673,0-32,14.327-32,32c0,17.673,14.327,32,32,32s32-14.327,32-32C104,326.327,89.673,312,72,312z M72,360
			c-8.837,0-16-7.163-16-16s7.163-16,16-16s16,7.163,16,16S80.837,360,72,360z"/>
	</g>
</g>
<g>
	<g>
		<path d="M88,384H56c-22.08,0.026-39.974,17.92-40,40v56h112v-56C127.974,401.92,110.08,384.026,88,384z M112,464H32v-40
			c0-13.255,10.745-24,24-24h32c13.255,0,24,10.745,24,24V464z"/>
	</g>
</g>
<g>
	<g>
		<path d="M240,312c-17.673,0-32,14.327-32,32c0,17.673,14.327,32,32,32c17.673,0,32-14.327,32-32C272,326.327,257.673,312,240,312z
			 M240,360c-8.837,0-16-7.163-16-16s7.163-16,16-16s16,7.163,16,16S248.837,360,240,360z"/>
	</g>
</g>
<g>
	<g>
		<path d="M256,384h-32c-22.08,0.026-39.974,17.92-40,40v56h112v-56C295.974,401.92,278.08,384.026,256,384z M280,464h-80v-40
			c0-13.255,10.745-24,24-24h32c13.255,0,24,10.745,24,24V464z"/>
	</g>
</g>
<g>
	<g>
		<path d="M408,312c-17.673,0-32,14.327-32,32c0,17.673,14.327,32,32,32c17.673,0,32-14.327,32-32C440,326.327,425.673,312,408,312z
			 M408,360c-8.837,0-16-7.163-16-16s7.163-16,16-16s16,7.163,16,16S416.837,360,408,360z"/>
	</g>
</g>
<g>
	<g>
		<path d="M424,384h-32c-22.08,0.026-39.974,17.92-40,40v56h112v-56C463.974,401.92,446.08,384.026,424,384z M448,464h-80v-40
			c0-13.255,10.745-24,24-24h32c13.255,0,24,10.745,24,24V464z"/>
	</g>
</g>
<g>
	<g>
		<path d="M430.652,240c-4.384-12.476-18.052-19.036-30.528-14.652c-6.854,2.408-12.243,7.798-14.652,14.652H262.528
			c-2.42-6.776-7.753-12.108-14.528-14.528V208h-16v17.472c-6.775,2.42-12.108,7.753-14.528,14.528H94.528
			C90.144,227.524,76.476,220.964,64,225.348c-12.476,4.384-19.036,18.052-14.652,30.528c2.408,6.854,7.798,12.243,14.652,14.652
			V296h16v-25.472c6.776-2.42,12.108-7.753,14.528-14.528h122.944c2.42,6.775,7.753,12.108,14.528,14.528V296h16v-25.472
			c6.776-2.42,12.108-7.753,14.528-14.528h122.944c2.42,6.775,7.753,12.108,14.528,14.528V296h16v-25.472
			C428.476,266.144,435.036,252.476,430.652,240z M72,256c-4.418,0-8-3.582-8-8s3.582-8,8-8s8,3.582,8,8S76.418,256,72,256z
			 M240,256c-4.418,0-8-3.582-8-8s3.582-8,8-8s8,3.582,8,8S244.418,256,240,256z M408,256c-4.418,0-8-3.582-8-8s3.582-8,8-8
			s8,3.582,8,8S412.418,256,408,256z"/>
	</g>
</g>
<g>
</g>
<g>
</g>
<g>
</g>
<g>
</g>
<g>
</g>
<g>
</g>
<g>
</g>
<g>
</g>
<g>
</g>
<g>
</g>
<g>
</g>
<g>
</g>
<g>
</g>
<g>
</g>
<g>
</g>
</svg>
