<svg id="BACKGROUND_2" data-name="BACKGROUND 2" xmlns="http://www.w3.org/2000/svg" width="70.66" height="54.55" viewBox="0 0 70.66 54.55"><defs><style>.cls-1,.cls-5{fill:none;}.cls-1,.cls-2,.cls-5{stroke:#2e7200;stroke-miterlimit:10;}.cls-1,.cls-2{stroke-width:2px;}.cls-2{fill:#fff;}.cls-3{fill:#2e7200;}.cls-4{fill:#375400;}</style></defs><title>leaf2</title><path class="cls-1" d="M62.94,42.77s14.4-13,1.06-30.9C64,11.87,52.09,1.15,46.24,1c0,0,.81,4.41.35,6.82A58.48,58.48,0,0,0,45,17.67C44.88,21.11,48.19,37.87,62.94,42.77Z"/><path class="cls-2" d="M64.45,42.36S46.08,64.75,18.52,46.19c0,0-16.82-17-17.44-25.65,0,0,6.64.88,10.18,0S19.68,18,25.77,17.5C30.89,17.05,56.08,20.76,64.45,42.36Z"/><path class="cls-3" d="M51.25,40c-6.64-4.35-10.86-12.35-12-20.07,0-.14-.1.14-.09.2,1.14,7.74,5.36,15.79,12,20.15.06,0,.13-.25.07-.28Z"/><path class="cls-3" d="M41.94,38.62c-4.81-1.57-7.15-6.81-9.12-11A19,19,0,0,0,29,22a60.38,60.38,0,0,0-5.21-4.22c-.11-.09-.2.2-.1.28a57.17,57.17,0,0,1,5.46,4.47,21.12,21.12,0,0,1,3.92,6.22c1.89,4,4.28,8.73,8.81,10.2.12.05.18-.25,0-.29Z"/><path class="cls-3" d="M32.5,26.82c-.72-1.61-.55-3.48-.55-5.21a7,7,0,0,0-.88-4.05c-.1-.13-.22.13-.15.24,1,1.36.82,3.24.82,4.82A10.51,10.51,0,0,0,32.32,27c.08.16.23-.07.18-.19Z"/><path class="cls-3" d="M29.4,35.48a23,23,0,0,1-7.86-7.72c-1-1.54-2-3.13-3-4.66a9,9,0,0,0-3.85-3.56c-.09,0-.15.25,0,.29,1.88.77,3.1,2.49,4.18,4.12s1.95,3.11,3,4.63a22.2,22.2,0,0,0,7.5,7.18c.11.06.18-.22.09-.28Z"/><path class="cls-3" d="M15.53,30.14c-3.88-2.27-4.88-7.45-9-9.36,0,0-.13.25,0,.29,4.11,1.91,5.11,7.09,9,9.35C15.54,30.46,15.6,30.18,15.53,30.14Z"/><path class="cls-3" d="M58.72,41.21c-1.51.26-2.32,2-2.82,3.16a7.37,7.37,0,0,0-.65,4.81c0,.17.22,0,.18-.1A6.79,6.79,0,0,1,56,44.77c.44-1.2,1.27-3,2.78-3.29.12,0,.11-.29,0-.27Z"/><path class="cls-3" d="M57.4,31.73c-1.21,1-1.13,3.11-1,4.53.11,1.66.46,3.79,1.61,5.1.13.15.21-.09.11-.19a8.36,8.36,0,0,1-1.49-4.54c-.16-1.41-.27-3.65.94-4.64.09-.08,0-.35-.14-.26Z"/><path class="cls-3" d="M50.65,39.76c-3.58,3.5-7.55,7.86-7.17,13.24,0,.2.18.1.17,0-.37-5.26,3.55-9.51,7-12.92.08-.07.06-.36,0-.27Z"/><path class="cls-3" d="M40.63,38.56c-4.6,3.67-10.74,6.72-13,12.5-.06.14.07.28.15.1,2.26-5.69,8.39-8.71,12.93-12.33.08-.07.06-.36,0-.27Z"/><path class="cls-3" d="M28.78,35.37a22.76,22.76,0,0,0-7.43,2.47,14.77,14.77,0,0,0-5.78,4.87c0,.08,0,.36.06.23A14.93,14.93,0,0,1,21.54,38a21.82,21.82,0,0,1,7.19-2.37c.1,0,.12-.3.05-.29Z"/><path class="cls-3" d="M15.05,30.09c-1.79,0-3.52.54-5.31.47s-3.63-1.19-5.25-1.92c-.08,0-.14.25,0,.3,1.66.74,3.41,1.77,5.25,1.91s3.53-.48,5.31-.47c.11,0,.14-.29.05-.29Z"/><path class="cls-4" d="M2.09,21.51"/><path class="cls-5" d="M1.9,21.2"/><path class="cls-5" d="M1.9,21.2,16,30.64c4.88,2.12,28,8.75,28,8.75l19.75,2.75"/><path class="cls-3" d="M59.69,27.81c-1.2-3.17-4.79-4.57-7.69-5.75a12.79,12.79,0,0,1-3.89-2.36,43.21,43.21,0,0,1-3-3.35c-.06-.08.12-.14.18-.08a39.18,39.18,0,0,0,3.18,3.51,14.15,14.15,0,0,0,4.3,2.42c2.75,1.14,6,2.59,7.12,5.57,0,.08-.16.13-.2,0Z"/><path class="cls-3" d="M51.48,21.87a8.64,8.64,0,0,0-3.51-.2,4.62,4.62,0,0,1-2.74-.46c-.09-.06.08-.15.15-.1a5.58,5.58,0,0,0,3.26.39,6.88,6.88,0,0,1,3,.25c.11,0,0,.15-.12.12Z"/><path class="cls-3" d="M57.18,19.51a15.27,15.27,0,0,0-5.43-5c-1.07-.63-2.16-1.21-3.22-1.86A6,6,0,0,1,46,10.18c0-.06.16-.11.19,0a6.64,6.64,0,0,0,2.9,2.67c1.06.63,2.15,1.2,3.2,1.84a14.85,14.85,0,0,1,5,4.79c0,.07-.14.13-.18.07Z"/><path class="cls-3" d="M53.15,10.39c-1.65-2.52-5.16-3-6.57-5.73,0,0,.17-.09.19,0,1.42,2.7,4.92,3.2,6.56,5.71C53.36,10.39,53.17,10.44,53.15,10.39Z"/><path class="cls-3" d="M62,39c.12-1,1.25-1.62,2-2a4.92,4.92,0,0,1,3.2-.6c.11,0,0,.15-.07.12a4.67,4.67,0,0,0-2.87.5c-.78.34-2,1-2.11,2,0,.08-.19.09-.18,0Z"/><path class="cls-3" d="M60.75,33.61c2.22-2.52,5-5.32,8.63-5.24.13,0,.07.12,0,.12-3.53-.08-6.25,2.68-8.43,5.14,0,0-.24,0-.17,0Z"/><path class="cls-3" d="M59.61,26.93c2.31-3.2,4.15-7.41,8-9.14.09,0,.19,0,.07.1-3.74,1.7-5.56,5.91-7.84,9.07,0,.06-.24.05-.18,0Z"/><path class="cls-3" d="M57.09,19.1A15.09,15.09,0,0,1,58.5,14a9.86,9.86,0,0,1,3.07-4s.24,0,.16,0a10,10,0,0,0-3.1,4.12,14.67,14.67,0,0,0-1.35,4.89c0,.08-.2.1-.19.05Z"/><path class="cls-3" d="M53.1,10.07c-.07-1.2.24-2.38.14-3.57A10.34,10.34,0,0,0,51.78,3s.16-.1.2,0a11.22,11.22,0,0,1,1.45,3.45c.15,1.19-.21,2.39-.14,3.58,0,.07-.19.1-.19,0Z"/><path class="cls-4" d="M46.93,1.67"/><path class="cls-5" d="M46.71,1.55"/><path class="cls-5" d="M46.71,1.55l6.78,9.12c1.59,3.19,6.78,18.47,6.78,18.47l2.49,13.14"/></svg>