<svg id="BACKGROUND_2" data-name="BACKGROUND 2" xmlns="http://www.w3.org/2000/svg" width="337.38" height="174.51" viewBox="0 0 337.38 174.51"><defs><style>.cls-1{fill:#6fa21c;}.cls-2,.cls-4,.cls-5{fill:none;}.cls-2,.cls-5,.cls-6{stroke:#6fa21c;}.cls-2,.cls-4,.cls-5,.cls-6{stroke-miterlimit:10;}.cls-2,.cls-6{stroke-width:1.5px;}.cls-3{fill:#375400;}.cls-4{stroke:#2e7200;}.cls-6{fill:#fff;}.cls-7{fill:#5b8c0a;}.cls-8{fill:#73a61f;}.cls-9{fill:#355304;}</style></defs><title>logo-healthity</title><path class="cls-1" d="M-456.57,404.51"/><path class="cls-1" d="M-456.81,404.11"/><path class="cls-2" d="M194.88,46.75s15.85-14.31,1.17-34c0,0-13.11-11.8-19.55-12,0,0,.89,4.86.38,7.51a65.3,65.3,0,0,0-1.75,10.84C175,22.91,178.65,41.36,194.88,46.75Z"/><path class="cls-1" d="M191.3,30.28c-1.32-3.49-5.27-5-8.46-6.33a14.09,14.09,0,0,1-4.28-2.59,46.33,46.33,0,0,1-3.31-3.69c-.06-.09.14-.15.2-.09a42.75,42.75,0,0,0,3.5,3.86,15.62,15.62,0,0,0,4.74,2.67c3,1.25,6.6,2.85,7.83,6.13,0,.09-.17.14-.22,0Z"/><path class="cls-1" d="M182.27,23.75a9.36,9.36,0,0,0-3.87-.22,5.14,5.14,0,0,1-3-.51c-.1-.07.09-.17.16-.11a6.15,6.15,0,0,0,3.59.43,7.66,7.66,0,0,1,3.3.27c.12,0,0,.17-.13.14Z"/><path class="cls-1" d="M188.54,21.15a16.73,16.73,0,0,0-6-5.51c-1.17-.69-2.37-1.33-3.54-2a6.71,6.71,0,0,1-2.79-2.72c0-.07.18-.12.21,0a7.39,7.39,0,0,0,3.2,2.94c1.16.69,2.36,1.32,3.52,2a16.41,16.41,0,0,1,5.5,5.27c0,.08-.15.15-.2.08Z"/><path class="cls-1" d="M184.1,11.11c-1.81-2.77-5.67-3.3-7.23-6.31,0,0,.19-.1.21,0,1.57,3,5.42,3.52,7.22,6.29C184.34,11.11,184.13,11.16,184.1,11.11Z"/><path class="cls-1" d="M193.85,42.6c.13-1.1,1.37-1.78,2.2-2.2a5.39,5.39,0,0,1,3.52-.66c.12,0,0,.16-.08.13a5.18,5.18,0,0,0-3.16.55c-.85.38-2.2,1.1-2.32,2.2,0,.09-.21.1-.2,0Z"/><path class="cls-1" d="M192.47,36.67c2.44-2.78,5.5-5.86,9.5-5.77.14,0,.08.13,0,.13-3.89-.09-6.88,2.95-9.28,5.66h-.19Z"/><path class="cls-1" d="M191.22,29.32c2.54-3.53,4.56-8.16,8.8-10.07.1,0,.21,0,.08.11-4.12,1.88-6.12,6.51-8.63,10,0,.06-.27,0-.2,0Z"/><path class="cls-1" d="M188.44,20.7A16.69,16.69,0,0,1,190,15.08a10.91,10.91,0,0,1,3.38-4.4h.18a11,11,0,0,0-3.41,4.53,16.1,16.1,0,0,0-1.49,5.39c0,.09-.22.11-.21,0Z"/><path class="cls-1" d="M184.05,10.76c-.08-1.32.26-2.62.15-3.93A11.37,11.37,0,0,0,182.6,3s.17-.11.22,0a12.32,12.32,0,0,1,1.59,3.8c.17,1.31-.23,2.63-.15,3.94,0,.08-.21.11-.21,0Z"/><path class="cls-3" d="M177.26,1.51"/><path class="cls-4" d="M177,1.38"/><path class="cls-5" d="M177,1.38l7.46,10c1.75,3.51,7.46,20.33,7.46,20.33l2.74,14.46"/><path class="cls-6" d="M196.54,46.3S176.32,70.94,146,50.51c0,0-18.52-18.71-19.2-28.23,0,0,7.31,1,11.21,0s9.26-2.79,16-3.34C159.6,18.44,187.33,22.52,196.54,46.3Z"/><path class="cls-1" d="M182,43.7c-7.31-4.79-11.95-13.59-13.21-22.09,0-.15-.11.15-.09.22,1.25,8.52,5.9,17.38,13.2,22.18.07,0,.15-.28.08-.31Z"/><path class="cls-1" d="M171.77,42.18c-5.3-1.73-7.87-7.49-10-12.11a21,21,0,0,0-4.21-6.18,67.23,67.23,0,0,0-5.73-4.65c-.12-.1-.22.22-.11.31a64.43,64.43,0,0,1,6,4.92A23.19,23.19,0,0,1,162,31.32c2.08,4.4,4.71,9.61,9.7,11.23.13.05.2-.28,0-.32Z"/><path class="cls-1" d="M161.37,29.19c-.79-1.77-.6-3.83-.6-5.73a7.72,7.72,0,0,0-1-4.46c-.11-.14-.24.14-.16.27,1.1,1.49.9,3.56.9,5.3a11.43,11.43,0,0,0,.64,4.82c.08.18.25-.07.19-.21Z"/><path class="cls-1" d="M157.79,38.33a24.91,24.91,0,0,1-8.56-8.3c-1.09-1.66-2.18-3.37-3.27-5a9.76,9.76,0,0,0-4.19-3.83c-.1,0-.16.27,0,.31,2,.83,3.38,2.68,4.55,4.44s2.13,3.34,3.27,5a24.18,24.18,0,0,0,8.17,7.73c.12.06.19-.24.1-.31Z"/><path class="cls-1" d="M142.7,32.85c-4.28-2.5-5.38-8.2-9.91-10.3,0,0-.14.27,0,.31,4.52,2.11,5.62,7.81,9.91,10.3C142.71,33.2,142.77,32.89,142.7,32.85Z"/><path class="cls-1" d="M190.24,45c-1.67.29-2.56,2.2-3.11,3.48a8.1,8.1,0,0,0-.71,5.3c0,.18.24,0,.19-.11a7.56,7.56,0,0,1,.63-4.75c.49-1.32,1.4-3.3,3.06-3.62.13,0,.12-.32,0-.3Z"/><path class="cls-1" d="M188.78,34.6c-1.33,1.1-1.24,3.42-1.1,5,.12,1.83.51,4.18,1.77,5.62.15.16.24-.1.13-.21a9.07,9.07,0,0,1-1.64-5c-.18-1.55-.3-4,1-5.11.1-.08,0-.38-.15-.28Z"/><path class="cls-1" d="M181.35,43.44c-3.94,3.85-8.31,8.65-7.89,14.57,0,.22.2.11.19,0-.41-5.79,3.91-10.47,7.7-14.22.09-.08.07-.4,0-.3Z"/><path class="cls-1" d="M170.32,42.12c-5.06,4-11.82,7.39-14.31,13.76-.06.15.08.3.17.11,2.49-6.27,9.23-9.59,14.23-13.58.09-.07.07-.39,0-.29Z"/><path class="cls-1" d="M157.28,38.61a25,25,0,0,0-8.18,2.71,16.36,16.36,0,0,0-6.36,5.36c0,.09,0,.4.07.26a16.35,16.35,0,0,1,6.5-5.44,24.14,24.14,0,0,1,7.92-2.61c.11,0,.13-.33.05-.32Z"/><path class="cls-1" d="M142.17,32.79c-2,0-3.88.6-5.85.52s-4-1.31-5.78-2.11c-.08,0-.15.27,0,.33,1.83.81,3.76,1.95,5.78,2.1s3.89-.53,5.85-.52c.12,0,.15-.32.05-.32Z"/><path class="cls-5" d="M127.21,22.75,143,33.29c5.46,2.36,31.32,9.77,31.32,9.77l22.09,3.07"/><path class="cls-7" d="M0,82.51H11v17.92H27.26V82.51h11v44.8h-11V109.77H11v17.54H0Z"/><path class="cls-7" d="M47.63,82.51H75.7v9.4H58.59v8.14H72.25v9.4H58.59v8.46h18v9.4H47.63Z"/><path class="cls-7" d="M93.93,82.51h11.53l15.23,44.8H109.41l-2.75-9.4h-14L90,127.31H78.71Zm10.16,26.63-2.51-8.71c-.82-2.82-1.82-7.71-1.82-7.71h-.12s-1,4.89-1.82,7.71l-2.57,8.71Z"/><path class="cls-7" d="M125.2,82.51h11v35.4h18.3v9.4H125.2Z"/><path class="cls-7" d="M164.49,91.91h-13.6v-9.4h38.17v9.4h-13.6v35.4h-11Z"/><path class="cls-7" d="M194.51,82.51h11v17.92h16.3V82.51h11v44.8h-11V109.77h-16.3v17.54h-11Z"/><path class="cls-8" d="M242.13,82.51h11v44.8h-11Z"/><path class="cls-8" d="M272.15,91.91h-13.6v-9.4h38.17v9.4h-13.6v35.4h-11Z"/><path class="cls-8" d="M311.63,109,296.84,82.51h12.47l5.07,10.77c1.45,3.07,2.7,6.46,2.7,6.46h.13s1.25-3.39,2.69-6.46l5-10.77h12.47L322.59,109v18.36h-11Z"/><path class="cls-9" d="M14.61,154.87h4.8v7.86h7.15v-7.86h4.8v19.64h-4.8v-7.69H19.41v7.69h-4.8Z"/><path class="cls-9" d="M45.92,154.87h12.3V159h-7.5v3.57h6v4.12h-6v3.71h7.89v4.12H45.92Z"/><path class="cls-9" d="M76.65,154.87h5l6.68,19.64H83.43l-1.21-4.12H76.1l-1.18,4.12H70Zm4.45,11.68L80,162.73c-.36-1.24-.8-3.38-.8-3.38h0s-.44,2.14-.8,3.38l-1.12,3.82Z"/><path class="cls-9" d="M100.79,154.87h4.8v15.52h8v4.12H100.79Z"/><path class="cls-9" d="M128.45,159h-6v-4.12h16.73V159h-6v15.52h-4.8Z"/><path class="cls-9" d="M152,154.87h4.8v7.86H164v-7.86h4.81v19.64H164v-7.69h-7.14v7.69H152Z"/><path class="cls-9" d="M187.49,166.46,181,154.87h5.47l2.22,4.73c.63,1.34,1.18,2.83,1.18,2.83h.06s.55-1.49,1.18-2.83l2.19-4.73h5.47l-6.48,11.59v8h-4.81Z"/><path class="cls-9" d="M227.29,154.87h4.8v15.52h8v4.12H227.29Z"/><path class="cls-9" d="M252.88,154.87h4.81v19.64h-4.81Z"/><path class="cls-9" d="M272.24,154.87h12V159h-7.22v4.12h6v4.12h-6v7.28h-4.81Z"/><path class="cls-9" d="M297.43,154.87h12.3V159h-7.5v3.57h6v4.12h-6v3.71h7.89v4.12H297.43Z"/></svg>